<svg xmlns="http://www.w3.org/2000/svg" width="100" height="24" viewBox="-8 -12 512 164" fill="#e0e0e0"><g transform="translate(13,1) scale(0.17)"><path fill-rule='evenodd' d="M42 0L58 0L100 140L76 140L64 96L36 96L24 140L0 140Z M50 44L62 86L38 86Z" transform='translate(0,0) scale(0.76,1)'/><path fill-rule='evenodd' d="M0 0L64 0L78 14L78 56L64 70L32 70L80 140L54 140L26 74L24 74L24 140L0 140Z M24 24L56 24L58 26L58 46L56 48L24 48Z" transform='translate(86,0) scale(0.76,1)'/><path d="M0 0L26 0L26 58L64 0L94 0L50 64L100 140L70 140L30 74L26 78L26 140L0 140Z" transform='translate(172,0) scale(0.76,1)'/><path d="M0 0L24 0L24 56L76 56L76 0L100 0L100 140L76 140L76 84L24 84L24 140L0 140Z" transform='translate(258,0) scale(0.76,1)'/><path d="M0 0L84 0L84 26L26 26L26 56L78 56L78 82L26 82L26 114L84 114L84 140L0 140Z" transform='translate(344,0) scale(0.76,1)'/><path fill-rule='evenodd' d="M0 0L64 0L78 14L78 56L64 70L32 70L80 140L54 140L26 74L24 74L24 140L0 140Z M24 24L56 24L58 26L58 46L56 48L24 48Z" transform='translate(430,0) scale(0.76,1)'/></g></svg>
